<svg xmlns="http://www.w3.org/2000/svg" xmlns:xlink="http://www.w3.org/1999/xlink" width="32" height="32" viewBox="0 0 32 32">
  <defs>
    <linearGradient id="linear-gradient" x2="1" y2="1" gradientUnits="objectBoundingBox">
      <stop offset="0" stop-color="#fff"/>
      <stop offset="1" stop-color="#d0b7ff"/>
    </linearGradient>
    <clipPath id="clip-path">
      <rect id="사각형_745" data-name="사각형 745" width="32" height="32" stroke="#707070" stroke-width="1" fill="url(#linear-gradient)"/>
    </clipPath>
  </defs>
  <g id="마스크_그룹_24" data-name="마스크 그룹 24" clip-path="url(#clip-path)">
    <g id="그룹_7341" data-name="그룹 7341" transform="translate(0.944 5.246)">
      <path id="패스_5495" data-name="패스 5495" d="M24.454,24.509a6.368,6.368,0,0,0,6.658-6.138A6.281,6.281,0,0,0,27.2,12.5c.025-5.52-3.948-9.5-9.009-9.5a8.6,8.6,0,0,0-7.227,3.96,5.106,5.106,0,0,0-6.423,4.888C1.745,12.294,0,14.794,0,17.814c0,3.639,3.181,6.7,7.413,6.7Z" transform="translate(0 -3)" fill="#eadeff"/>
      <path id="합치기_7" data-name="합치기 7" d="M10,1.5A1.5,1.5,0,1,1,11.5,3,1.5,1.5,0,0,1,10,1.5Zm-5,0A1.5,1.5,0,1,1,6.5,3,1.5,1.5,0,0,1,5,1.5Zm-5,0A1.5,1.5,0,1,1,1.5,3,1.5,1.5,0,0,1,0,1.5Z" transform="translate(9.059 10.752)" fill="#53516a"/>
    </g>
  </g>
</svg>
