<svg width="164" height="32" viewBox="0 0 164 32" fill="none" xmlns="http://www.w3.org/2000/svg">
<path d="M6.625 21.9688L9.75 10.0938H13.0469L11.875 16.0469L8.78125 27H6.14062L6.625 21.9688ZM5.39062 10.0938L7.32812 21.875L7.54688 27H4.34375L0.34375 10.0938H5.39062ZM15.8281 21.625L17.7812 10.0938H22.8281L18.8594 27H15.6562L15.8281 21.625ZM13.4219 10.0938L16.5781 21.9375L17.0625 27H14.3906L11.3594 16.0781L10.2344 10.0938H13.4219ZM32.9219 27.3125C31.5469 27.3125 30.3177 27.099 29.2344 26.6719C28.151 26.2344 27.2344 25.6354 26.4844 24.875C25.7448 24.1146 25.1771 23.2396 24.7812 22.25C24.3958 21.2604 24.2031 20.2135 24.2031 19.1094V18.5156C24.2031 17.276 24.375 16.1302 24.7188 15.0781C25.0625 14.0156 25.5729 13.0885 26.25 12.2969C26.9271 11.5052 27.776 10.8906 28.7969 10.4531C29.8177 10.0052 31.0052 9.78125 32.3594 9.78125C33.5573 9.78125 34.6302 9.97396 35.5781 10.3594C36.526 10.7448 37.3281 11.2969 37.9844 12.0156C38.651 12.7344 39.1562 13.6042 39.5 14.625C39.8542 15.6458 40.0312 16.7917 40.0312 18.0625V20.2031H26.2188V16.9062H34.8906V16.5C34.901 15.9375 34.8021 15.4583 34.5938 15.0625C34.3958 14.6667 34.1042 14.3646 33.7188 14.1562C33.3333 13.9479 32.8646 13.8438 32.3125 13.8438C31.7396 13.8438 31.2656 13.9688 30.8906 14.2188C30.526 14.4688 30.2396 14.8125 30.0312 15.25C29.8333 15.6771 29.6927 16.1719 29.6094 16.7344C29.526 17.2969 29.4844 17.8906 29.4844 18.5156V19.1094C29.4844 19.7344 29.5677 20.3021 29.7344 20.8125C29.9115 21.3229 30.1615 21.7604 30.4844 22.125C30.8177 22.4792 31.2135 22.7552 31.6719 22.9531C32.1406 23.151 32.6719 23.25 33.2656 23.25C33.9844 23.25 34.6927 23.1146 35.3906 22.8438C36.0885 22.5729 36.6875 22.125 37.1875 21.5L39.5781 24.3438C39.2344 24.8333 38.7448 25.3073 38.1094 25.7656C37.4844 26.224 36.7344 26.599 35.8594 26.8906C34.9844 27.1719 34.0052 27.3125 32.9219 27.3125ZM42.2188 3H47.4844V22.8438L46.9375 27H42.2188V3ZM57.8594 18.3594V18.6875C57.8594 19.9688 57.7292 21.1354 57.4688 22.1875C57.2083 23.2396 56.8073 24.151 56.2656 24.9219C55.724 25.6823 55.0417 26.2708 54.2188 26.6875C53.3958 27.1042 52.4219 27.3125 51.2969 27.3125C50.276 27.3125 49.401 27.0938 48.6719 26.6562C47.9427 26.2083 47.3333 25.5938 46.8438 24.8125C46.3542 24.0208 45.9583 23.1094 45.6562 22.0781C45.3542 21.0365 45.1146 19.9219 44.9375 18.7344V18.3438C45.1146 17.1667 45.3542 16.0625 45.6562 15.0312C45.9583 13.9896 46.3542 13.0781 46.8438 12.2969C47.3333 11.5052 47.9375 10.8906 48.6562 10.4531C49.3854 10.0052 50.2552 9.78125 51.2656 9.78125C52.401 9.78125 53.3802 9.99479 54.2031 10.4219C55.0365 10.849 55.724 11.4479 56.2656 12.2188C56.8073 12.9896 57.2083 13.8958 57.4688 14.9375C57.7292 15.9792 57.8594 17.1198 57.8594 18.3594ZM52.5938 18.6875V18.3594C52.5938 17.7448 52.5573 17.1667 52.4844 16.625C52.4115 16.0833 52.2812 15.6042 52.0938 15.1875C51.9062 14.7708 51.6406 14.4427 51.2969 14.2031C50.9531 13.9635 50.5052 13.8438 49.9531 13.8438C49.3906 13.8438 48.9167 13.9375 48.5312 14.125C48.1562 14.3125 47.8542 14.5833 47.625 14.9375C47.4062 15.2812 47.25 15.7083 47.1562 16.2188C47.0625 16.7188 47.0208 17.2865 47.0312 17.9219V19.1562C47.0104 20.0208 47.0885 20.7604 47.2656 21.375C47.4427 21.9896 47.75 22.4583 48.1875 22.7812C48.625 23.1042 49.224 23.2656 49.9844 23.2656C50.5469 23.2656 51 23.1562 51.3438 22.9375C51.6979 22.7188 51.9635 22.4062 52.1406 22C52.3177 21.5938 52.4375 21.1094 52.5 20.5469C52.5625 19.9844 52.5938 19.3646 52.5938 18.6875ZM66.6562 27H61.3594V9.03125C61.3594 7.65625 61.6562 6.5 62.25 5.5625C62.8438 4.61458 63.7031 3.89583 64.8281 3.40625C65.9635 2.91667 67.3229 2.67188 68.9062 2.67188C69.5938 2.67188 70.4531 2.69271 71.4844 2.73438C72.5156 2.76562 73.5521 2.80729 74.5938 2.85938C75.6458 2.90104 76.5365 2.94792 77.2656 3L75.1406 7.23438C74.2135 7.08854 73.3021 6.96875 72.4062 6.875C71.5104 6.78125 70.6146 6.73438 69.7188 6.73438C69.0625 6.73438 68.5052 6.82292 68.0469 7C67.599 7.17708 67.2552 7.4375 67.0156 7.78125C66.776 8.11458 66.6562 8.53125 66.6562 9.03125V27ZM71.9844 27V3H77.2656V27H71.9844ZM69.9375 10.0938V13.75H58.9219V10.0938H69.9375ZM90.3906 22.8906V10.0938H95.6719V27H90.7344L90.3906 22.8906ZM90.8906 19.4531L92.2656 19.4219C92.2656 20.5573 92.1302 21.6094 91.8594 22.5781C91.5885 23.5365 91.1875 24.3698 90.6562 25.0781C90.1354 25.7865 89.4896 26.3385 88.7188 26.7344C87.9583 27.1198 87.0781 27.3125 86.0781 27.3125C85.2448 27.3125 84.4792 27.1979 83.7812 26.9688C83.0938 26.7292 82.5 26.3594 82 25.8594C81.5 25.349 81.1094 24.6979 80.8281 23.9062C80.5573 23.1042 80.4219 22.1458 80.4219 21.0312V10.0938H85.6875V21.0625C85.6875 21.4375 85.7344 21.7604 85.8281 22.0312C85.9219 22.3021 86.0573 22.5312 86.2344 22.7188C86.4115 22.8958 86.6302 23.0312 86.8906 23.125C87.1615 23.2083 87.4688 23.25 87.8125 23.25C88.6042 23.25 89.224 23.0833 89.6719 22.75C90.1198 22.4167 90.4323 21.9635 90.6094 21.3906C90.7969 20.8177 90.8906 20.1719 90.8906 19.4531ZM106.766 27.3125C105.391 27.3125 104.161 27.099 103.078 26.6719C101.995 26.2344 101.078 25.6354 100.328 24.875C99.5885 24.1146 99.0208 23.2396 98.625 22.25C98.2396 21.2604 98.0469 20.2135 98.0469 19.1094V18.5156C98.0469 17.276 98.2188 16.1302 98.5625 15.0781C98.9062 14.0156 99.4167 13.0885 100.094 12.2969C100.771 11.5052 101.62 10.8906 102.641 10.4531C103.661 10.0052 104.849 9.78125 106.203 9.78125C107.401 9.78125 108.474 9.97396 109.422 10.3594C110.37 10.7448 111.172 11.2969 111.828 12.0156C112.495 12.7344 113 13.6042 113.344 14.625C113.698 15.6458 113.875 16.7917 113.875 18.0625V20.2031H100.062V16.9062H108.734V16.5C108.745 15.9375 108.646 15.4583 108.438 15.0625C108.24 14.6667 107.948 14.3646 107.562 14.1562C107.177 13.9479 106.708 13.8438 106.156 13.8438C105.583 13.8438 105.109 13.9688 104.734 14.2188C104.37 14.4688 104.083 14.8125 103.875 15.25C103.677 15.6771 103.536 16.1719 103.453 16.7344C103.37 17.2969 103.328 17.8906 103.328 18.5156V19.1094C103.328 19.7344 103.411 20.3021 103.578 20.8125C103.755 21.3229 104.005 21.7604 104.328 22.125C104.661 22.4792 105.057 22.7552 105.516 22.9531C105.984 23.151 106.516 23.25 107.109 23.25C107.828 23.25 108.536 23.1146 109.234 22.8438C109.932 22.5729 110.531 22.125 111.031 21.5L113.422 24.3438C113.078 24.8333 112.589 25.3073 111.953 25.7656C111.328 26.224 110.578 26.599 109.703 26.8906C108.828 27.1719 107.849 27.3125 106.766 27.3125ZM121.188 13.7031V27H115.922V10.0938H120.859L121.188 13.7031ZM120.562 17.9688L119.328 18C119.328 16.7083 119.484 15.5573 119.797 14.5469C120.109 13.526 120.552 12.6615 121.125 11.9531C121.698 11.2448 122.38 10.7083 123.172 10.3438C123.974 9.96875 124.865 9.78125 125.844 9.78125C126.625 9.78125 127.339 9.89583 127.984 10.125C128.641 10.3542 129.203 10.724 129.672 11.2344C130.151 11.7448 130.516 12.4219 130.766 13.2656C131.026 14.099 131.156 15.1302 131.156 16.3594V27H125.859V16.3438C125.859 15.6667 125.766 15.151 125.578 14.7969C125.391 14.4323 125.12 14.1823 124.766 14.0469C124.411 13.9115 123.979 13.8438 123.469 13.8438C122.927 13.8438 122.469 13.9479 122.094 14.1562C121.719 14.3646 121.417 14.6562 121.188 15.0312C120.969 15.3958 120.807 15.8281 120.703 16.3281C120.609 16.8281 120.562 17.375 120.562 17.9688ZM142.984 10.0938V13.75H132.797V10.0938H142.984ZM134.938 5.89062H140.203V21.4844C140.203 21.9323 140.255 22.2812 140.359 22.5312C140.464 22.7708 140.641 22.9427 140.891 23.0469C141.151 23.1406 141.495 23.1875 141.922 23.1875C142.224 23.1875 142.474 23.1823 142.672 23.1719C142.87 23.151 143.057 23.125 143.234 23.0938V26.8594C142.786 27.0052 142.318 27.1146 141.828 27.1875C141.339 27.2708 140.818 27.3125 140.266 27.3125C139.141 27.3125 138.177 27.1354 137.375 26.7812C136.583 26.4271 135.979 25.8698 135.562 25.1094C135.146 24.349 134.938 23.3594 134.938 22.1406V5.89062Z" fill="black"/>
<circle cx="160" cy="7.33334" r="4" fill="#3189FF"/>
<circle cx="160" cy="24.6667" r="4" fill="#1F60B8"/>
</svg>
