<svg width="179" height="50" viewBox="0 0 179 50" fill="none" xmlns="http://www.w3.org/2000/svg">
<g clip-path="url(#clip0_1_69)">
<path d="M20.3093 45.1729L29.6489 29L37.0072 41.7438C33.4647 44.3007 29.2052 45.6736 24.8364 45.6667C23.2822 45.6667 21.7676 45.4959 20.3093 45.1729ZM16.2739 43.8334C13.5972 42.6232 11.2058 40.8621 9.25584 38.6652C7.30586 36.4682 5.84111 33.8847 4.95719 31.0834H23.6343L16.2739 43.8313V43.8334ZM4.10719 26.9167C3.80905 23.9943 4.13456 21.0419 5.06221 18.2547C5.98985 15.4674 7.4985 12.9088 9.48844 10.7479L18.8197 26.9167H4.10719ZM12.6676 7.92294C16.2095 5.36644 20.4682 3.99354 24.8364 4.00002C26.3905 4.00002 27.9051 4.17086 29.3634 4.49377L20.0239 20.6667L12.6676 7.92294ZM33.3989 5.83336C36.0755 7.04353 38.4669 8.80457 40.4169 11.0015C42.3669 13.1985 43.8316 15.782 44.7155 18.5834H26.0384L33.3989 5.83544V5.83336ZM45.5655 22.75C45.8637 25.6724 45.5381 28.6248 44.6105 31.412C43.6829 34.1993 42.1742 36.7579 40.1843 38.9188L30.853 22.75H45.5697H45.5655Z" fill="white" fill-opacity="0.8"/>
</g>
<path d="M67.3594 33.5V20.7734H70.8281V33.5H67.3594ZM69.0938 19.1094C68.0391 19.1094 67.1953 18.3125 67.1953 17.3516C67.1953 16.3672 68.0391 15.5703 69.0938 15.5703C70.125 15.5703 70.9688 16.3672 70.9688 17.3516C70.9688 18.3125 70.125 19.1094 69.0938 19.1094ZM73.5234 33.5V20.7734H76.8281V23H76.9688C77.5078 21.5234 78.7969 20.6094 80.5078 20.6094C82.2656 20.6094 83.5547 21.5234 83.9766 23H84.0938C84.6328 21.5469 86.0625 20.6094 87.9375 20.6094C90.3047 20.6094 91.9453 22.1797 91.9453 24.9453V33.5H88.4766V25.625C88.4766 24.1719 87.6328 23.4688 86.4844 23.4688C85.1719 23.4688 84.4219 24.3828 84.4219 25.7188V33.5H81.0469V25.5312C81.0469 24.2656 80.25 23.4688 79.0781 23.4688C77.9062 23.4688 76.9922 24.4062 76.9922 25.8594V33.5H73.5234ZM94.0078 29.9375C94.0078 27.1016 96.3047 26.1641 98.7422 26.0234C99.6562 25.9648 101.367 25.8828 101.906 25.8594V24.8281C101.883 23.7734 101.156 23.1406 99.8672 23.1406C98.6953 23.1406 97.9453 23.6797 97.7578 24.5469H94.4531C94.6641 22.3438 96.5859 20.6094 99.9609 20.6094C102.727 20.6094 105.352 21.8516 105.352 24.9219V33.5H102.07V31.7422H101.977C101.344 32.9141 100.148 33.7344 98.25 33.7344C95.8125 33.7344 94.0078 32.4688 94.0078 29.9375ZM97.3359 29.8438C97.3359 30.8281 98.1328 31.3438 99.2344 31.3438C100.805 31.3438 101.93 30.2891 101.906 28.9531V28.0156C101.379 28.0391 99.9023 28.1211 99.3047 28.1797C98.1094 28.2969 97.3359 28.8594 97.3359 29.8438ZM113.719 38.5391C110.203 38.5391 108.047 36.9688 107.836 34.5547H111.258C111.445 35.5625 112.406 36.0312 113.789 36.0312C115.406 36.0312 116.484 35.3516 116.484 33.5703V31.25H116.32C115.852 32.2812 114.727 33.3125 112.688 33.3125C109.805 33.3125 107.508 31.2969 107.508 27.0547C107.508 22.7422 109.875 20.6094 112.688 20.6094C114.82 20.6094 115.852 21.875 116.32 22.9062H116.461V20.7734H119.906V33.6406C119.906 36.875 117.328 38.5391 113.719 38.5391ZM113.766 30.7109C115.5 30.7109 116.484 29.3516 116.484 27.1016C116.484 24.8281 115.5 23.375 113.766 23.375C112.008 23.375 111.07 24.8984 111.07 27.1016C111.07 29.3047 112.008 30.7109 113.766 30.7109ZM122.602 33.5V20.7734H126.07V33.5H122.602ZM124.336 19.1094C123.281 19.1094 122.438 18.3125 122.438 17.3516C122.438 16.3672 123.281 15.5703 124.336 15.5703C125.367 15.5703 126.211 16.3672 126.211 17.3516C126.211 18.3125 125.367 19.1094 124.336 19.1094ZM132.234 26.1406V33.5H128.766V20.7734H132.07V23H132.211C132.797 21.5234 134.156 20.6094 136.031 20.6094C138.68 20.6094 140.438 22.4141 140.414 25.3906V33.5H136.969V26C136.969 24.4297 136.102 23.4922 134.672 23.4922C133.219 23.4922 132.234 24.4531 132.234 26.1406ZM142.5 29.9375C142.5 27.1016 144.797 26.1641 147.234 26.0234C148.148 25.9648 149.859 25.8828 150.398 25.8594V24.8281C150.375 23.7734 149.648 23.1406 148.359 23.1406C147.188 23.1406 146.438 23.6797 146.25 24.5469H142.945C143.156 22.3438 145.078 20.6094 148.453 20.6094C151.219 20.6094 153.844 21.8516 153.844 24.9219V33.5H150.562V31.7422H150.469C149.836 32.9141 148.641 33.7344 146.742 33.7344C144.305 33.7344 142.5 32.4688 142.5 29.9375ZM145.828 29.8438C145.828 30.8281 146.625 31.3438 147.727 31.3438C149.297 31.3438 150.422 30.2891 150.398 28.9531V28.0156C149.871 28.0391 148.395 28.1211 147.797 28.1797C146.602 28.2969 145.828 28.8594 145.828 29.8438ZM156.492 33.5V20.7734H159.844V22.9766H159.984C160.453 21.4062 161.625 20.5859 163.055 20.5859C163.406 20.5859 163.852 20.6328 164.156 20.7031V23.7969C163.828 23.7031 163.172 23.6094 162.68 23.6094C161.109 23.6094 159.961 24.7109 159.961 26.2578V33.5H156.492ZM168.281 38.2812C167.602 38.2812 166.969 38.2578 166.523 38.2109V35.5156C166.969 35.5391 167.484 35.5625 167.93 35.5625C168.609 35.5625 169.172 35.4922 169.594 34.3906L169.805 33.8516L165.234 20.7734H168.867L171.539 30.1484H171.68L174.375 20.7734H178.055L173.086 34.9062C172.359 36.9453 170.977 38.2812 168.281 38.2812Z" fill="white" fill-opacity="0.8"/>
<defs>
<clipPath id="clip0_1_69">
<rect width="50" height="50" fill="white"/>
</clipPath>
</defs>
</svg>
