<svg width="179" height="50" viewBox="0 0 179 50" fill="none" xmlns="http://www.w3.org/2000/svg">
<g clip-path="url(#clip0_1_69)">
<path d="M20.4729 45.3396L29.8125 29.1666L37.1708 41.9104C33.6283 44.4673 29.3689 45.8402 25 45.8333C23.4458 45.8333 21.9312 45.6625 20.4729 45.3396ZM16.4375 44C13.7608 42.7898 11.3695 41.0288 9.41949 38.8318C7.46951 36.6348 6.00475 34.0514 5.12083 31.25H23.7979L16.4375 43.9979V44ZM4.27083 27.0833C3.9727 24.1609 4.29821 21.2085 5.22585 18.4213C6.15349 15.6341 7.66214 13.0754 9.65208 10.9146L18.9833 27.0833H4.27083ZM12.8312 8.08957C16.3732 5.53307 20.6318 4.16017 25 4.16665C26.5542 4.16665 28.0687 4.33748 29.5271 4.6604L20.1875 20.8333L12.8312 8.08957ZM33.5625 5.99998C36.2392 7.21016 38.6305 8.9712 40.5805 11.1682C42.5305 13.3651 43.9952 15.9486 44.8792 18.75H26.2021L33.5625 6.00207V5.99998ZM45.7292 22.9166C46.0273 25.839 45.7018 28.7914 44.7741 31.5787C43.8465 34.3659 42.3379 36.9245 40.3479 39.0854L31.0167 22.9166H45.7333H45.7292Z" fill="white" fill-opacity="0.8"/>
</g>
<path d="M67.3594 33.5H70.8281V20.7734H67.3594V33.5ZM67.1953 17.3516C67.1953 18.3125 68.0508 19.1094 69.0938 19.1094C70.125 19.1094 70.9805 18.3125 70.9688 17.3516C70.9805 16.3672 70.125 15.582 69.0938 15.5703C68.0508 15.582 67.1953 16.3672 67.1953 17.3516ZM73.5234 33.5H76.9922V25.8594C76.9805 24.418 77.8945 23.4688 79.0781 23.4688C80.2617 23.4688 81.0586 24.2773 81.0469 25.5312V33.5H84.4219V25.7188C84.4102 24.3711 85.1836 23.4688 86.4844 23.4688C87.6211 23.4688 88.4883 24.1719 88.4766 25.625V33.5H91.9453V24.9453C91.9453 22.168 90.293 20.6094 87.9375 20.6094C86.0742 20.6094 84.6211 21.5586 84.0938 23H83.9766C83.5547 21.5352 82.2539 20.6094 80.5078 20.6094C78.7969 20.6094 77.5078 21.5117 76.9688 23H76.8281V20.7734H73.5234V33.5ZM94.0078 29.9375C94.0195 32.457 95.8125 33.7461 98.25 33.7344C100.137 33.7461 101.355 32.9141 101.977 31.7422H102.07V33.5H105.352V24.9219C105.363 21.8516 102.738 20.6094 99.9609 20.6094C96.5859 20.6094 94.6641 22.3438 94.4531 24.5469H97.7578C97.9453 23.6797 98.6836 23.1523 99.8672 23.1406C101.168 23.1523 101.895 23.7617 101.906 24.8281V25.8594C101.367 25.8828 99.6562 25.9648 98.7422 26.0234C96.293 26.1758 94.0195 27.1016 94.0078 29.9375ZM97.3359 29.8438C97.3359 28.8594 98.0977 28.2852 99.3047 28.1797C99.8906 28.1328 101.379 28.0508 101.906 28.0273V28.9531C101.918 30.3008 100.816 31.332 99.2344 31.3438C98.1211 31.332 97.3359 30.8164 97.3359 29.8438ZM113.719 38.5391C117.34 38.5391 119.895 36.8867 119.906 33.6406V20.7734H116.461V22.9062H116.32C115.852 21.875 114.82 20.6094 112.688 20.6094C109.875 20.6094 107.508 22.7539 107.508 27.0547C107.508 31.2969 109.816 33.3242 112.688 33.3125C114.738 33.3242 115.863 32.2812 116.32 31.25H116.484V33.5703C116.473 35.3398 115.395 36.0312 113.789 36.0312C112.406 36.0312 111.445 35.5742 111.258 34.5547H107.836C108.035 36.957 110.203 38.5391 113.719 38.5391ZM111.07 27.1016C111.059 24.9102 111.996 23.375 113.766 23.375C115.512 23.375 116.484 24.8398 116.484 27.1016C116.484 29.3633 115.5 30.6992 113.766 30.7109C112.008 30.6992 111.059 29.3047 111.07 27.1016ZM122.602 33.5H126.07V20.7734H122.602V33.5ZM122.438 17.3516C122.438 18.3125 123.293 19.1094 124.336 19.1094C125.367 19.1094 126.223 18.3125 126.211 17.3516C126.223 16.3672 125.367 15.582 124.336 15.5703C123.293 15.582 122.438 16.3672 122.438 17.3516ZM132.234 26.1406C132.234 24.4648 133.23 23.4922 134.672 23.4922C136.113 23.4922 136.957 24.4297 136.969 26V33.5H140.414V25.3906C140.426 22.4258 138.691 20.6094 136.031 20.6094C134.145 20.6094 132.785 21.5352 132.211 23H132.07V20.7734H128.766V33.5H132.234V26.1406ZM142.5 29.9375C142.512 32.457 144.305 33.7461 146.742 33.7344C148.629 33.7461 149.848 32.9141 150.469 31.7422H150.562V33.5H153.844V24.9219C153.855 21.8516 151.23 20.6094 148.453 20.6094C145.078 20.6094 143.156 22.3438 142.945 24.5469H146.25C146.438 23.6797 147.176 23.1523 148.359 23.1406C149.66 23.1523 150.387 23.7617 150.398 24.8281V25.8594C149.859 25.8828 148.148 25.9648 147.234 26.0234C144.785 26.1758 142.512 27.1016 142.5 29.9375ZM145.828 29.8438C145.828 28.8594 146.59 28.2852 147.797 28.1797C148.383 28.1328 149.871 28.0508 150.398 28.0273V28.9531C150.41 30.3008 149.309 31.332 147.727 31.3438C146.613 31.332 145.828 30.8164 145.828 29.8438ZM156.492 33.5H159.961V26.2578C159.949 24.6992 161.109 23.6094 162.68 23.6094C163.16 23.6094 163.828 23.6914 164.156 23.7969V20.7031C163.852 20.6328 163.406 20.5859 163.055 20.5859C161.625 20.5859 160.441 21.418 159.984 22.9766H159.844V20.7734H156.492V33.5ZM168.281 38.2812C170.965 38.2695 172.359 36.957 173.086 34.9062L178.055 20.7734H174.375L171.68 30.1484H171.539L168.867 20.7734H165.234L169.805 33.8516L169.594 34.3906C169.172 35.4922 168.621 35.5625 167.93 35.5625C167.496 35.5625 166.969 35.5508 166.523 35.5156V38.2109C166.969 38.2578 167.602 38.2695 168.281 38.2812Z" fill="white" fill-opacity="0.8"/>
<defs>
<clipPath id="clip0_1_69">
<rect width="50" height="50" fill="white"/>
</clipPath>
</defs>
</svg>
