<svg width="63" height="63" viewBox="0 0 63 63" fill="none" xmlns="http://www.w3.org/2000/svg">
<path d="M50.1876 50.014L55.197 45.0047L60.2035 50.014C61.1943 51.0045 61.8692 52.2667 62.1426 53.6408C62.4161 55.0148 62.276 56.4392 61.7399 57.7336C61.2039 59.028 60.296 60.1344 59.1311 60.9129C57.9662 61.6913 56.5966 62.1068 55.1956 62.1068C53.7945 62.1068 52.4249 61.6913 51.2601 60.9129C50.0952 60.1344 49.1873 59.028 48.6512 57.7336C48.1152 56.4392 47.975 55.0148 48.2485 53.6408C48.522 52.2667 49.1968 51.0045 50.1876 50.014ZM20.8626 0L52.919 32.0535C53.1824 32.3166 53.3914 32.6291 53.534 32.9731C53.6766 33.3171 53.75 33.6857 53.75 34.0581C53.75 34.4304 53.6766 34.7991 53.534 35.1431C53.3914 35.487 53.1824 35.7995 52.919 36.0627L28.8781 60.1035C28.3468 60.6347 27.6263 60.9331 26.875 60.9331C26.1237 60.9331 25.4031 60.6347 24.8718 60.1035L0.830979 36.0627C0.567546 35.7995 0.358562 35.487 0.215976 35.1431C0.0733909 34.7991 0 34.4304 0 34.0581C0 33.6857 0.0733909 33.3171 0.215976 32.9731C0.358562 32.6291 0.567546 32.3166 0.830979 32.0535L22.8686 10.0158L16.8563 4.00633L20.8683 0H20.8626ZM26.875 14.025L6.84048 34.0567L26.875 54.0968L46.9095 34.0623L26.875 14.0222V14.025Z" fill="white"/>
</svg>
