<svg xmlns="http://www.w3.org/2000/svg" xmlns:xlink="http://www.w3.org/1999/xlink" width="32" height="32" viewBox="0 0 32 32">
  <defs>
    <linearGradient id="linear-gradient" x2="1" y2="1" gradientUnits="objectBoundingBox">
      <stop offset="0" stop-color="#fff"/>
      <stop offset="1" stop-color="#d0b7ff"/>
    </linearGradient>
    <clipPath id="clip-path">
      <rect id="사각형_824" data-name="사각형 824" width="32" height="32" stroke="#707070" stroke-width="1" fill="url(#linear-gradient)"/>
    </clipPath>
  </defs>
  <g id="마스크_그룹_26" data-name="마스크 그룹 26" clip-path="url(#clip-path)">
    <path id="합치기_5" data-name="합치기 5" d="M17,22a1,1,0,0,1-.924-.617A1.018,1.018,0,0,1,16,21V9a1,1,0,0,1,1-1h4a1.018,1.018,0,0,1,.383.076,1,1,0,0,1,.324.217,1.013,1.013,0,0,1,.217.325A1,1,0,0,1,22,9V21a1,1,0,0,1-1,1ZM9,22a1,1,0,0,1-.382-.076,1.013,1.013,0,0,1-.325-.217,1,1,0,0,1-.217-.324A1.018,1.018,0,0,1,8,21V1A1,1,0,0,1,8.293.293,1.008,1.008,0,0,1,9,0h4a1,1,0,0,1,.382.076.983.983,0,0,1,.324.216,1.013,1.013,0,0,1,.217.325A1,1,0,0,1,14,1V21a1,1,0,0,1-1,1ZM1,22a1,1,0,0,1-.383-.076,1.013,1.013,0,0,1-.325-.217.983.983,0,0,1-.216-.324A1,1,0,0,1,0,21V13a1,1,0,0,1,.076-.383.983.983,0,0,1,.216-.324,1.013,1.013,0,0,1,.325-.217A1,1,0,0,1,1,12H5a1,1,0,0,1,.707.293.986.986,0,0,1,.217.324A1,1,0,0,1,6,13v8a1,1,0,0,1-.076.383.986.986,0,0,1-.217.324A1,1,0,0,1,5,22Z" transform="translate(5 5)" fill="#eadeff" opacity="0.998"/>
  </g>
</svg>
