<svg xmlns="http://www.w3.org/2000/svg" xmlns:xlink="http://www.w3.org/1999/xlink" width="32" height="32" viewBox="0 0 32 32">
  <defs>
    <linearGradient id="linear-gradient" x2="1" y2="1" gradientUnits="objectBoundingBox">
      <stop offset="0" stop-color="#fff"/>
      <stop offset="1" stop-color="#d0b7ff"/>
    </linearGradient>
    <clipPath id="clip-path">
      <rect id="사각형_825" data-name="사각형 825" width="32" height="32" stroke="#707070" stroke-width="1" fill="url(#linear-gradient)"/>
    </clipPath>
  </defs>
  <g id="마스크_그룹_27" data-name="마스크 그룹 27" clip-path="url(#clip-path)">
    <g id="그룹_7340" data-name="그룹 7340" transform="translate(2.141 4.105)">
      <path id="빼기_3" data-name="빼기 3" d="M12.844,22.508c-.074,0-.151,0-.224-.006a3.957,3.957,0,0,0,.739-2.316,4.113,4.113,0,0,0-.114-.959,3.644,3.644,0,0,0,2.572-1.436,5.162,5.162,0,0,0,.979-3.182,9.906,9.906,0,0,0-.167-1.734,21.685,21.685,0,0,1-3.774.318,21.19,21.19,0,0,1-3.78-.328A9.112,9.112,0,0,0,8.9,14.609a6.065,6.065,0,0,0,.2,1.582,3.922,3.922,0,0,0-2.551,1.141A8.238,8.238,0,0,1,6.4,15.77a11.175,11.175,0,0,1,.609-3.414A11.846,11.846,0,0,1,1.833,9.309,6.1,6.1,0,0,1,0,5.148,5.023,5.023,0,0,1,1.371,1.5,3.992,3.992,0,0,0,3.382,4.658a3.224,3.224,0,0,0-.134.939c0,2.34,2.2,4.26,4.389,5.123a22.872,22.872,0,0,1,4.019-6.088A9.765,9.765,0,0,0,8.915,3.018a4,4,0,0,0,.446-1.836c0-.08,0-.156-.006-.223A15.248,15.248,0,0,1,12.86,3.432C15.95.6,18.518,0,20.127,0a6.032,6.032,0,0,1,4.16,1.385,4.243,4.243,0,0,1,1.265,2.051,4.036,4.036,0,0,0-1.192-.182A3.967,3.967,0,0,0,22.039,4a2.93,2.93,0,0,0-.458-.551,3.708,3.708,0,0,0-2.546-.85,8.018,8.018,0,0,0-4.972,2.041,22.868,22.868,0,0,1,4,6.076,8.424,8.424,0,0,0,2.713-1.687,4.011,4.011,0,0,0,1.479,1.631A12.859,12.859,0,0,1,18.7,12.371a11.324,11.324,0,0,1,.6,3.4,6.939,6.939,0,0,1-1.812,4.838A6.322,6.322,0,0,1,12.844,22.508Zm.016-16.75A15.331,15.331,0,0,0,9.5,11.277a16.242,16.242,0,0,0,3.358.332,15.933,15.933,0,0,0,3.348-.338A15.283,15.283,0,0,0,12.86,5.758Z" transform="translate(0 1.213)" fill="#e9ddff" opacity="0.6"/>
      <path id="패스_5494" data-name="패스 5494" d="M5.32,5.977a2.3,2.3,0,1,0-2.3-2.3A2.286,2.286,0,0,0,5.32,5.977Zm19.107,6.2a2.3,2.3,0,1,0-2.3-2.3A2.293,2.293,0,0,0,24.428,12.174ZM9.287,25.117a2.3,2.3,0,1,0-2.309-2.3A2.293,2.293,0,0,0,9.287,25.117Z" transform="translate(0.002 -1.383)" fill="#e9ddff"/>
    </g>
  </g>
</svg>
