<svg width="24" height="18" viewBox="0 0 24 18" fill="none" xmlns="http://www.w3.org/2000/svg">
<path d="M24 8.92244C24 8.8615 24 8.79224 23.9973 8.71191C23.9946 8.48753 23.9893 8.23546 23.9839 7.96676C23.9625 7.19391 23.925 6.42382 23.8661 5.69806C23.7857 4.69806 23.6679 3.86427 23.5071 3.23823C23.3375 2.5849 23.0051 1.98905 22.543 1.51024C22.081 1.03142 21.5055 0.686416 20.8741 0.509695C20.1161 0.299169 18.6321 0.168975 16.5429 0.0886426C15.5491 0.0498614 14.4857 0.0249306 13.4223 0.0110802C13.05 0.00554 12.7045 0.00277008 12.3938 0H11.6062C11.2955 0.00277008 10.95 0.00554 10.5777 0.0110802C9.51429 0.0249306 8.45089 0.0498614 7.45714 0.0886426C5.36786 0.171745 3.88125 0.301939 3.12589 0.509695C2.49429 0.685982 1.91858 1.03085 1.45646 1.50973C0.994336 1.98861 0.662036 2.58469 0.492857 3.23823C0.329464 3.86427 0.214286 4.69806 0.133929 5.69806C0.075 6.42382 0.0375 7.19391 0.0160714 7.96676C0.00803567 8.23546 0.0053571 8.48753 0.00267853 8.71191C0.00267853 8.79224 0 8.8615 0 8.92244V9.07756C0 9.1385 -4.09117e-08 9.20776 0.00267853 9.28809C0.0053571 9.51246 0.0107142 9.76454 0.0160714 10.0332C0.0375 10.8061 0.075 11.5762 0.133929 12.3019C0.214286 13.3019 0.332143 14.1357 0.492857 14.7618C0.835714 16.0886 1.84286 17.1357 3.12589 17.4903C3.88125 17.7008 5.36786 17.831 7.45714 17.9114C8.45089 17.9501 9.51429 17.9751 10.5777 17.9889C10.95 17.9945 11.2955 17.9972 11.6062 18H12.3938C12.7045 17.9972 13.05 17.9945 13.4223 17.9889C14.4857 17.9751 15.5491 17.9501 16.5429 17.9114C18.6321 17.8283 20.1187 17.6981 20.8741 17.4903C22.1571 17.1357 23.1643 16.0914 23.5071 14.7618C23.6705 14.1357 23.7857 13.3019 23.8661 12.3019C23.925 11.5762 23.9625 10.8061 23.9839 10.0332C23.992 9.76454 23.9946 9.51246 23.9973 9.28809C23.9973 9.20776 24 9.1385 24 9.07756V8.92244ZM22.0714 9.06648C22.0714 9.12465 22.0714 9.18836 22.0688 9.26316C22.0661 9.47922 22.0607 9.71745 22.0554 9.97507C22.0366 10.7119 21.9991 11.4488 21.9429 12.133C21.8705 13.0249 21.7688 13.7562 21.6429 14.2465C21.4768 14.8864 20.9893 15.3934 20.3732 15.5623C19.8107 15.7175 18.3937 15.8421 16.4679 15.9169C15.4929 15.9557 14.4429 15.9806 13.3955 15.9945C13.0286 16 12.6884 16.0028 12.383 16.0028H11.617L10.6045 15.9945C9.55714 15.9806 8.50982 15.9557 7.53214 15.9169C5.60625 15.8393 4.18661 15.7175 3.62679 15.5623C3.01071 15.3906 2.52321 14.8864 2.35714 14.2465C2.23125 13.7562 2.12946 13.0249 2.05714 12.133C2.00089 11.4488 1.96607 10.7119 1.94464 9.97507C1.93661 9.71745 1.93393 9.47645 1.93125 9.26316C1.93125 9.18836 1.92857 9.12188 1.92857 9.06648V8.93352C1.92857 8.87535 1.92857 8.81163 1.93125 8.73684C1.93393 8.52077 1.93929 8.28255 1.94464 8.02493C1.96339 7.28809 2.00089 6.55125 2.05714 5.86703C2.12946 4.97507 2.23125 4.24377 2.35714 3.75346C2.52321 3.11357 3.01071 2.60665 3.62679 2.43767C4.18929 2.28255 5.60625 2.15789 7.53214 2.0831C8.50714 2.04432 9.55714 2.01939 10.6045 2.00554C10.9714 2 11.3116 1.99723 11.617 1.99723H12.383L13.3955 2.00554C14.4429 2.01939 15.4902 2.04432 16.4679 2.0831C18.3937 2.16066 19.8134 2.28255 20.3732 2.43767C20.9893 2.60942 21.4768 3.11357 21.6429 3.75346C21.7688 4.24377 21.8705 4.97507 21.9429 5.86703C21.9991 6.55125 22.0339 7.28809 22.0554 8.02493C22.0634 8.28255 22.0661 8.52354 22.0688 8.73684C22.0688 8.81163 22.0714 8.87812 22.0714 8.93352V9.06648ZM9.61607 12.7119L15.8304 8.9723L9.61607 5.28809V12.7119Z" fill="white"/>
</svg>
