<svg width="40" height="40" viewBox="0 0 40 40" fill="none" xmlns="http://www.w3.org/2000/svg">
<rect x="0.5" y="0.5" width="39" height="39" rx="19.5" stroke="#222222" stroke-opacity="0.5"/>
<path d="M20.0359 20.7286L16.6213 24.1432H14.3604V26.4033H12.1003V28.6633H8.33331V24.8963L16.2689 16.9607C16.0009 16.248 15.8649 15.4926 15.8674 14.7312C15.8676 13.3664 16.3041 12.0375 17.1133 10.9385C17.9224 9.83948 19.0617 9.02794 20.3647 8.62238C21.6678 8.21683 23.0664 8.23851 24.3563 8.68426C25.6462 9.13001 26.7598 9.97648 27.5345 11.1C28.3091 12.2236 28.7043 13.5654 28.6622 14.9295C28.6201 16.2936 28.1431 17.6085 27.3006 18.6822C26.4582 19.7559 25.2946 20.5321 23.9797 20.8976C22.6648 21.263 21.2675 21.1984 19.9919 20.7133L20.0359 20.7277V20.7286ZM26.4162 12.8421V12.8396C26.4162 12.3926 26.2837 11.9557 26.0354 11.5841C25.7871 11.2124 25.4342 10.9228 25.0212 10.7517C24.6083 10.5806 24.1539 10.5358 23.7156 10.6229C23.2772 10.7101 22.8745 10.9252 22.5584 11.2412C22.2423 11.5572 22.027 11.9598 21.9397 12.3982C21.8524 12.8365 21.897 13.2909 22.0679 13.7039C22.2388 14.1169 22.5284 14.4699 22.8999 14.7184C23.2715 14.9668 23.7084 15.0995 24.1553 15.0997H24.1562C24.7551 15.0994 25.3294 14.8616 25.7531 14.4384C26.1768 14.0151 26.4153 13.441 26.4162 12.8421Z" fill="#222222"/>
</svg>
