<svg width="48" height="48" viewBox="0 0 48 48" fill="none" xmlns="http://www.w3.org/2000/svg">
<rect x="0.5" y="0.5" width="47" height="47" rx="23.5" stroke="#222222" stroke-opacity="0.5"/>
<path fill-rule="evenodd" clip-rule="evenodd" d="M19.465 13.066C20.638 13.012 21.012 13 24 13C26.988 13 27.362 13.013 28.534 13.066C29.706 13.119 30.506 13.306 31.206 13.577C31.939 13.854 32.604 14.287 33.154 14.847C33.714 15.396 34.146 16.06 34.422 16.794C34.694 17.494 34.88 18.294 34.934 19.464C34.988 20.639 35 21.013 35 24C35 26.988 34.987 27.362 34.934 28.535C34.881 29.705 34.694 30.505 34.422 31.205C34.146 31.9391 33.7133 32.6042 33.154 33.154C32.604 33.714 31.939 34.146 31.206 34.422C30.506 34.694 29.706 34.88 28.536 34.934C27.362 34.988 26.988 35 24 35C21.012 35 20.638 34.987 19.465 34.934C18.295 34.881 17.495 34.694 16.795 34.422C16.0609 34.146 15.3958 33.7133 14.846 33.154C14.2864 32.6047 13.8533 31.9399 13.577 31.206C13.306 30.506 13.12 29.706 13.066 28.536C13.012 27.361 13 26.987 13 24C13 21.012 13.013 20.638 13.066 19.466C13.119 18.294 13.306 17.494 13.577 16.794C13.8537 16.0601 14.2871 15.3953 14.847 14.846C15.396 14.2865 16.0605 13.8534 16.794 13.577C17.494 13.306 18.294 13.12 19.464 13.066H19.465ZM28.445 15.046C27.285 14.993 26.937 14.982 24 14.982C21.063 14.982 20.715 14.993 19.555 15.046C18.482 15.095 17.9 15.274 17.512 15.425C16.999 15.625 16.632 15.862 16.247 16.247C15.882 16.6021 15.6012 17.0343 15.425 17.512C15.274 17.9 15.095 18.482 15.046 19.555C14.993 20.715 14.982 21.063 14.982 24C14.982 26.937 14.993 27.285 15.046 28.445C15.095 29.518 15.274 30.1 15.425 30.488C15.601 30.965 15.882 31.398 16.247 31.753C16.602 32.118 17.035 32.399 17.512 32.575C17.9 32.726 18.482 32.905 19.555 32.954C20.715 33.007 21.062 33.018 24 33.018C26.938 33.018 27.285 33.007 28.445 32.954C29.518 32.905 30.1 32.726 30.488 32.575C31.001 32.375 31.368 32.138 31.753 31.753C32.118 31.398 32.399 30.965 32.575 30.488C32.726 30.1 32.905 29.518 32.954 28.445C33.007 27.285 33.018 26.937 33.018 24C33.018 21.063 33.007 20.715 32.954 19.555C32.905 18.482 32.726 17.9 32.575 17.512C32.375 16.999 32.138 16.632 31.753 16.247C31.3979 15.8821 30.9657 15.6012 30.488 15.425C30.1 15.274 29.518 15.095 28.445 15.046ZM22.595 27.391C23.3797 27.7176 24.2534 27.7617 25.0669 27.5157C25.8805 27.2697 26.5834 26.7489 27.0556 26.0422C27.5278 25.3356 27.7401 24.4869 27.656 23.6411C27.572 22.7953 27.197 22.005 26.595 21.405C26.2112 21.0215 25.7472 20.7278 25.2363 20.5451C24.7255 20.3625 24.1804 20.2954 23.6405 20.3486C23.1006 20.4019 22.5792 20.5742 22.1138 20.8531C21.6485 21.1321 21.2507 21.5107 20.9493 21.9619C20.6479 22.413 20.4502 22.9253 20.3705 23.462C20.2908 23.9986 20.3312 24.5463 20.4885 25.0655C20.6459 25.5847 20.9165 26.0626 21.2807 26.4647C21.645 26.8668 22.0938 27.1832 22.595 27.391ZM20.002 20.002C20.527 19.477 21.1503 19.0605 21.8363 18.7764C22.5223 18.4922 23.2575 18.346 24 18.346C24.7425 18.346 25.4777 18.4922 26.1637 18.7764C26.8497 19.0605 27.473 19.477 27.998 20.002C28.523 20.527 28.9395 21.1503 29.2236 21.8363C29.5078 22.5223 29.654 23.2575 29.654 24C29.654 24.7425 29.5078 25.4777 29.2236 26.1637C28.9395 26.8497 28.523 27.473 27.998 27.998C26.9377 29.0583 25.4995 29.654 24 29.654C22.5005 29.654 21.0623 29.0583 20.002 27.998C18.9417 26.9377 18.346 25.4995 18.346 24C18.346 22.5005 18.9417 21.0623 20.002 20.002ZM30.908 19.188C31.0381 19.0653 31.1423 18.9177 31.2143 18.754C31.2863 18.5903 31.3248 18.4138 31.3274 18.2349C31.33 18.0561 31.2967 17.8785 31.2295 17.7128C31.1622 17.5471 31.0624 17.3965 30.936 17.27C30.8095 17.1436 30.6589 17.0438 30.4932 16.9765C30.3275 16.9093 30.1499 16.876 29.9711 16.8786C29.7922 16.8812 29.6157 16.9197 29.452 16.9917C29.2883 17.0637 29.1407 17.1679 29.018 17.298C28.7793 17.551 28.6486 17.8871 28.6537 18.2349C28.6588 18.5827 28.7992 18.9149 29.0452 19.1608C29.2911 19.4068 29.6233 19.5472 29.9711 19.5523C30.3189 19.5574 30.655 19.4267 30.908 19.188Z" fill="#222222"/>
</svg>
