<svg width="48" height="48" viewBox="0 0 48 48" fill="none" xmlns="http://www.w3.org/2000/svg">
<rect x="0.5" y="0.5" width="47" height="47" rx="23.5" stroke="#222222" stroke-opacity="0.5"/>
<path d="M36 23.9224C36 23.8615 36 23.7922 35.9973 23.7119C35.9946 23.4875 35.9893 23.2355 35.9839 22.9668C35.9625 22.1939 35.925 21.4238 35.8661 20.6981C35.7857 19.6981 35.6679 18.8643 35.5071 18.2382C35.3375 17.5849 35.0051 16.9891 34.543 16.5102C34.081 16.0314 33.5055 15.6864 32.8741 15.5097C32.1161 15.2992 30.6321 15.169 28.5429 15.0886C27.5491 15.0499 26.4857 15.0249 25.4223 15.0111C25.05 15.0055 24.7045 15.0028 24.3938 15H23.6062C23.2955 15.0028 22.95 15.0055 22.5777 15.0111C21.5143 15.0249 20.4509 15.0499 19.4571 15.0886C17.3679 15.1717 15.8812 15.3019 15.1259 15.5097C14.4943 15.686 13.9186 16.0308 13.4565 16.5097C12.9943 16.9886 12.662 17.5847 12.4929 18.2382C12.3295 18.8643 12.2143 19.6981 12.1339 20.6981C12.075 21.4238 12.0375 22.1939 12.0161 22.9668C12.008 23.2355 12.0054 23.4875 12.0027 23.7119C12.0027 23.7922 12 23.8615 12 23.9224V24.0776C12 24.1385 12 24.2078 12.0027 24.2881C12.0054 24.5125 12.0107 24.7645 12.0161 25.0332C12.0375 25.8061 12.075 26.5762 12.1339 27.3019C12.2143 28.3019 12.3321 29.1357 12.4929 29.7618C12.8357 31.0886 13.8429 32.1357 15.1259 32.4903C15.8812 32.7008 17.3679 32.831 19.4571 32.9114C20.4509 32.9501 21.5143 32.9751 22.5777 32.9889C22.95 32.9945 23.2955 32.9972 23.6062 33H24.3938C24.7045 32.9972 25.05 32.9945 25.4223 32.9889C26.4857 32.9751 27.5491 32.9501 28.5429 32.9114C30.6321 32.8283 32.1187 32.6981 32.8741 32.4903C34.1571 32.1357 35.1643 31.0914 35.5071 29.7618C35.6705 29.1357 35.7857 28.3019 35.8661 27.3019C35.925 26.5762 35.9625 25.8061 35.9839 25.0332C35.992 24.7645 35.9946 24.5125 35.9973 24.2881C35.9973 24.2078 36 24.1385 36 24.0776V23.9224ZM34.0714 24.0665C34.0714 24.1247 34.0714 24.1884 34.0688 24.2632C34.0661 24.4792 34.0607 24.7175 34.0554 24.9751C34.0366 25.7119 33.9991 26.4488 33.9429 27.133C33.8705 28.0249 33.7688 28.7562 33.6429 29.2465C33.4768 29.8864 32.9893 30.3934 32.3732 30.5623C31.8107 30.7175 30.3937 30.8421 28.4679 30.9169C27.4929 30.9557 26.4429 30.9806 25.3955 30.9945C25.0286 31 24.6884 31.0028 24.383 31.0028H23.617L22.6045 30.9945C21.5571 30.9806 20.5098 30.9557 19.5321 30.9169C17.6063 30.8393 16.1866 30.7175 15.6268 30.5623C15.0107 30.3906 14.5232 29.8864 14.3571 29.2465C14.2313 28.7562 14.1295 28.0249 14.0571 27.133C14.0009 26.4488 13.9661 25.7119 13.9446 24.9751C13.9366 24.7175 13.9339 24.4765 13.9313 24.2632C13.9313 24.1884 13.9286 24.1219 13.9286 24.0665V23.9335C13.9286 23.8753 13.9286 23.8116 13.9313 23.7368C13.9339 23.5208 13.9393 23.2825 13.9446 23.0249C13.9634 22.2881 14.0009 21.5512 14.0571 20.867C14.1295 19.9751 14.2313 19.2438 14.3571 18.7535C14.5232 18.1136 15.0107 17.6066 15.6268 17.4377C16.1893 17.2825 17.6063 17.1579 19.5321 17.0831C20.5071 17.0443 21.5571 17.0194 22.6045 17.0055C22.9714 17 23.3116 16.9972 23.617 16.9972H24.383L25.3955 17.0055C26.4429 17.0194 27.4902 17.0443 28.4679 17.0831C30.3937 17.1607 31.8134 17.2825 32.3732 17.4377C32.9893 17.6094 33.4768 18.1136 33.6429 18.7535C33.7688 19.2438 33.8705 19.9751 33.9429 20.867C33.9991 21.5512 34.0339 22.2881 34.0554 23.0249C34.0634 23.2825 34.0661 23.5235 34.0688 23.7368C34.0688 23.8116 34.0714 23.8781 34.0714 23.9335V24.0665ZM21.6161 27.7119L27.8304 23.9723L21.6161 20.2881V27.7119Z" fill="#222222"/>
</svg>
